#!OML:ASF F:\VICON\USERDATA\INSTALL\rory3\rory3.ASF
:FULLY-SPECIFIED
:DEGREES
148
root -0.248627 16.3016 -17.4076 -1.06606 -0.846751 6.45752
lowerback 13.6928 0.857763 -9.40952
upperback -3.86021 -0.514429 0.606158
thorax -11.9678 0.483976 6.13058
lowerneck -10.0123 -5.87552 -3.92319
upperneck 18.5225 -7.92691 2.56062
head 7.60888 -3.83495 0.717548
rclavicle 8.19987e-016 1.51076e-014
rhumerus -42.3515 -6.17335 -78.7707
rradius 22.0115
rwrist 13.8028
rhand -11.1088 21.1771
rfingers 7.12502
rthumb 14.9156 -8.26584
lclavicle 8.19987e-016 1.51076e-014
lhumerus -38.0475 3.88696 85.9986
lradius 21.7551
lwrist -0.75438
lhand -5.91642 19.4281
lfingers 7.12502
lthumb 19.9127 48.4279
rfemur -26.2857 -0.448576 11.7867
rtibia 79.9379
rfoot 6.56424 -1.82615
rtoes 24.1511
lfemur -11.4769 -13.2766 -31.8959
ltibia 28.6635
lfoot -13.2587 8.07952
ltoes 18.0297
149
root -0.232209 16.2907 -17.3167 -0.942172 -0.875735 6.33591
lowerback 13.6141 0.784384 -9.18813
upperback -3.81188 -0.558275 0.631315
thorax -11.854 0.440333 6.04089
lowerneck -10.0156 -5.82024 -3.88879
upperneck 18.4862 -7.86177 2.59521
head 7.59517 -3.79853 0.730312
rclavicle -1.13804e-014 -4.77083e-015
rhumerus -42.2959 -6.17619 -78.8746
rradius 22.1196
rwrist 13.5872
rhand -10.9094 20.7556
rfingers 7.12502
rthumb 15.1077 -8.67301
lclavicle -1.13804e-014 -4.77083e-015
lhumerus -37.4681 3.88956 85.9297
lradius 21.6395
lwrist -1.19811
lhand -5.96692 19.4208
lfingers 7.12502
lthumb 19.8642 48.4257
rfemur -27.6353 -0.445859 12.1197
rtibia 80.0394
rfoot 5.21123 -1.57412
rtoes 24.6902
lfemur -11.4365 -13.3703 -31.8969
ltibia 29.0035
lfoot -13.6884 8.13486
ltoes 18.084
150
root -0.213872 16.2846 -17.2213 -0.861919 -0.861412 6.34282
lowerback 13.6496 0.707983 -9.13071
upperback -3.85728 -0.653188 0.659194
thorax -11.9098 0.397145 6.06279
lowerneck -9.75035 -5.74657 -3.71944
upperneck 18.3989 -7.75439 2.38445
head 7.49964 -3.75918 0.655446
rclavicle 3.13086e-015 -1.03368e-014
rhumerus -42.525 -5.80598 -79.0152
rradius 22.216
rwrist 13.3911
rhand -11.1295 21.4116
rfingers 7.12502
rthumb 14.8957 -8.03282
lclavicle 3.13086e-015 -1.03368e-014
lhumerus -37.2441 3.63313 86.0383
lradius 21.8991
lwrist -0.956568
lhand -6.01884 19.4045
lfingers 7.12502
lthumb 19.8142 48.4145
rfemur -28.7929 -0.533203 12.2591
rtibia 79.883
rfoot 3.78113 -1.52307
rtoes 24.3696
lfemur -11.1997 -13.4051 -32.0713
ltibia 29.1641
lfoot -13.9929 8.18181
ltoes 17.7324
151
root -0.203592 16.2869 -17.1199 -0.88194 -0.889771 6.18337
lowerback 13.7768 0.638738 -9.05166
upperback -3.88301 -0.733576 0.769493
thorax -11.9997 0.364495 6.16343
lowerneck -9.39517 -5.68088 -3.70234
upperneck 18.2479 -7.66023 2.31447
head 7.3804 -3.72509 0.652529
rclavicle -6.70898e-015 -1.98785e-014
rhumerus -42.7025 -5.71388 -78.9909
rradius 22.0827
rwrist 13.5688
rhand -11.4209 22.2502
rfingers 7.12502
rthumb 14.615 -7.21486
lclavicle -6.70898e-015 -1.98785e-014
lhumerus -37.0323 3.61318 86.0387
lradius 22.0242
lwrist -1.03779
lhand -6.13349 18.8135
lfingers 7.12502
lthumb 19.704 47.8349
rfemur -29.7081 -0.535588 12.651
rtibia 79.4556
rfoot 2.24683 -1.33164
rtoes 22.6947
lfemur -10.7268 -13.448 -32.0706
ltibia 29.1862
lfoot -14.3747 8.3384
ltoes 16.8791
152
root -0.19702 16.2943 -17.0156 -0.916906 -0.800798 5.90336
lowerback 13.8491 0.518315 -8.88659
upperback -3.84456 -0.852175 0.925967
thorax -11.9746 0.30134 6.27397
lowerneck -8.91757 -5.57572 -3.84974
upperneck 18.0641 -7.51614 2.39201
head 7.24023 -3.66642 0.732014
rclavicle -9.86469e-015 -1.74931e-014
rhumerus -42.6351 -5.67718 -79.0499
rradius 22.1706
rwrist 13.4709
rhand -10.9441 21.973
rfingers 7.12502
rthumb 15.0743 -7.45812
lclavicle -9.86469e-015 -1.74931e-014
lhumerus -36.698 3.39758 86.1621
lradius 22.2014
lwrist -0.818099
lhand -6.13662 18.732
lfingers 7.12502
lthumb 19.701 47.7537
rfemur -30.4741 -0.630671 13.227
rtibia 78.7814
rfoot 0.899993 -1.47599
rtoes 22.308
lfemur -10.1529 -13.6485 -31.9339
ltibia 29.0854
lfoot -14.725 8.56454
ltoes 16.0608
153
root -0.187823 16.3018 -16.9112 -0.838595 -0.588666 5.83702
lowerback 13.8332 0.370613 -8.82018
upperback -3.79715 -1.02921 0.970124
thorax -11.8775 0.208112 6.32568
lowerneck -9.06033 -5.46914 -3.81249
upperneck 18.1434 -7.37325 2.39469
head 7.28508 -3.59301 0.735346
rclavicle 6.4605e-015 7.15625e-015
rhumerus -42.3717 -5.76203 -79.1787
rradius 22.0835
rwrist 13.5259
rhand -10.9668 21.65
rfingers 7.12502
rthumb 15.0525 -7.78283
lclavicle 6.4605e-015 7.15625e-015
lhumerus -36.2251 3.17196 86.2901
lradius 22.4989
lwrist -0.415075
lhand -6.25479 19.0806
lfingers 7.12502
lthumb 19.5874 48.1138
rfemur -31.2998 -0.84063 13.5158
rtibia 78.0007
rfoot -0.373406 -1.80319
rtoes 23.7421
lfemur -9.67719 -13.8472 -31.9967
ltibia 28.9184
lfoot -15.0718 8.5475
ltoes 15.9698
154
root -0.174829 16.3026 -16.8044 -0.804116 -0.610593 5.73205
lowerback 13.815 0.318852 -8.66219
upperback -3.76091 -1.06248 0.999759
thorax -11.8182 0.177727 6.27509
lowerneck -9.59699 -5.32894 -3.67823
upperneck 18.6131 -7.20077 2.3983
head 7.52301 -3.4916 0.710465
rclavicle -1.67476e-014 0
rhumerus -42.4799 -5.41093 -79.4496
rradius 22.2476
rwrist 13.159
rhand -11.3186 21.5737
rfingers 7.12502
rthumb 14.7136 -7.88419
lclavicle -1.67476e-014 0
lhumerus -35.9094 2.91929 86.3843
lradius 22.8907
lwrist -0.108839
lhand -6.21972 19.2781
lfingers 7.12502
lthumb 19.6211 48.3079
rfemur -32.079 -0.77462 13.8359
rtibia 77.0963
rfoot -1.73223 -2.12024
rtoes 24.7266
lfemur -9.13848 -14.0047 -32.0619
ltibia 28.7181
lfoot -15.4949 8.61227
ltoes 16.646
155
root -0.165174 16.2925 -16.698 -0.843492 -0.918077 5.68731
lowerback 13.8527 0.366265 -8.67363
upperback -3.7544 -1.00023 1.03622
thorax -11.8439 0.210948 6.30908
lowerneck -9.75989 -5.15587 -3.67913
upperneck 18.9453 -7.00267 2.57124
head 7.66111 -3.37738 0.778236
rclavicle 4.00054e-015 1.27222e-014
rhumerus -42.7667 -4.8129 -79.8684
rradius 22.7265
rwrist 12.337
rhand -11.0735 20.9926
rfingers 7.12502
rthumb 14.9496 -8.4479
lclavicle 4.00054e-015 1.27222e-014
lhumerus -35.782 2.78073 86.4261
lradius 23.2034
lwrist -0.174705
lhand -6.02757 19.117
lfingers 7.12502
lthumb 19.8058 48.1279
rfemur -32.8916 -0.379639 14.1006
rtibia 76.1544
rfoot -2.92415 -2.44952
rtoes 24.3329
lfemur -8.51142 -14.0767 -32.2226
ltibia 28.488
lfoot -15.974 8.89013
ltoes 16.9595
156
root -0.159148 16.2916 -16.595 -0.785751 -1.02563 5.63925
lowerback 13.9414 0.345908 -8.78216
upperback -3.77572 -1.04553 1.14208
thorax -11.9121 0.207248 6.50378
lowerneck -9.81072 -5.0881 -3.74864
upperneck 18.8664 -6.91184 2.66845
head 7.64727 -3.32995 0.829704
rclavicle 1.01877e-015 -1.27222e-014
rhumerus -42.6773 -4.57726 -80.0726
rradius 22.8149
rwrist 12.0449
rhand -10.7608 20.6029
rfingers 7.12502
rthumb 15.2509 -8.81494
lclavicle 1.01877e-015 -1.27222e-014
lhumerus -35.585 2.62503 86.5698
lradius 23.5582
lwrist -0.0155938
lhand -6.04402 18.7809
lfingers 7.12502
lthumb 19.79 47.7935
rfemur -33.6656 -0.222163 14.337
rtibia 75.0479
rfoot -3.81833 -2.94824
rtoes 23.99
lfemur -7.98035 -14.1815 -32.3487
ltibia 28.28
lfoot -16.2716 9.27978
ltoes 15.408
157
root -0.152422 16.2914 -16.4916 -0.65661 -1.02927 5.744
lowerback 13.944 0.308032 -9.00544
upperback -3.80762 -1.13229 1.21013
thorax -11.9336 0.188551 6.72941
lowerneck -9.75604 -5.09424 -3.79878
upperneck 18.6431 -6.89757 2.6296
head 7.56407 -3.33225 0.830386
rclavicle -1.10077e-014 0
rhumerus -42.6511 -4.32026 -80.2281
rradius 22.8977
rwrist 11.9848
rhand -10.7769 20.5899
rfingers 7.12502
rthumb 15.2354 -8.82913
lclavicle -1.10077e-014 0
lhumerus -35.4642 2.3554 86.8066
lradius 24.1003
lwrist 0.381497
lhand -5.96158 18.8912
lfingers 7.12502
lthumb 19.8693 47.8955
rfemur -34.4041 -0.1353 14.334
rtibia 73.7753
rfoot -4.82127 -3.4307
rtoes 24.8084
lfemur -7.49162 -14.3945 -32.6348
ltibia 28.024
lfoot -16.4526 9.74192
ltoes 13.7092
158
root -0.147451 16.2811 -16.3868 -0.503843 -1.11686 5.959
lowerback 13.9203 0.317369 -9.30483
upperback -3.86737 -1.17825 1.19415
thorax -11.9802 0.193246 6.89435
lowerneck -9.48971 -5.0759 -3.76296
upperneck 18.4234 -6.86643 2.56022
head 7.43962 -3.32588 0.814692
rclavicle 1.92324e-014 6.36111e-015
rhumerus -42.7822 -3.97931 -80.5019
rradius 23.075
rwrist 11.8142
rhand -10.5542 20.3466
rfingers 7.12502
rthumb 15.4499 -9.05592
lclavicle 1.92324e-014 6.36111e-015
lhumerus -35.3788 2.02676 86.9876
lradius 24.5467
lwrist 0.668164
lhand -5.84241 19.0051
lfingers 7.12502
lthumb 19.9838 47.9975
rfemur -35.1724 0.0333402 14.2044
rtibia 72.3958
rfoot -5.67791 -3.8299
rtoes 26.4903
lfemur -7.00871 -14.4587 -33.0103
ltibia 27.6906
lfoot -16.6482 10.0837
ltoes 12.5327
159
root -0.14501 16.2767 -16.2819 -0.437843 -1.1532 5.96374
lowerback 14.1247 0.294255 -9.39959
upperback -3.93569 -1.24771 1.2323
thorax -12.1678 0.183331 7.01653
lowerneck -9.12153 -5.08007 -3.7447
upperneck 18.2098 -6.85403 2.4207
head 7.29836 -3.33692 0.780155
rclavicle 2.23633e-015 7.95139e-016
rhumerus -42.939 -3.67104 -80.7421
rradius 23.2294
rwrist 11.6992
rhand -10.3333 20.272
rfingers 7.12502
rthumb 15.6627 -9.11398
lclavicle 2.23633e-015 7.95139e-016
lhumerus -35.2867 1.27759 87.3499
lradius 24.9428
lwrist 1.29423
lhand -6.00806 19.1439
lfingers 7.12502
lthumb 19.8246 48.1529
rfemur -35.7019 0.244716 14.3398
rtibia 70.7966
rfoot -6.6146 -4.20082
rtoes 27.1995
lfemur -6.41184 -14.4217 -33.1489
ltibia 27.3431
lfoot -16.8917 10.2218
ltoes 11.3607
